<svg xmlns="http://www.w3.org/2000/svg" viewBox="0 0 509.5 522.91"><defs><style>.cls-1,.cls-2,.cls-3,.cls-4{fill:none;}.cls-1,.cls-2,.cls-3,.cls-4,.cls-5{stroke:#404040;stroke-miterlimit:10;}.cls-1{stroke-width:5px;}.cls-2{stroke-width:4px;}.cls-3{stroke-width:3px;}.cls-4{stroke-width:6px;}.cls-5{fill:#404040;stroke-width:0.25px;}</style></defs><title>products</title><g id="Layer_2" data-name="Layer 2"><g id="Layer_1-2" data-name="Layer 1"><path class="cls-1" d="M64.5,156.5V23.5a6,6,0,0,1,6-6h331a6,6,0,0,1,6,6v262a6,6,0,0,0,6,6h3a6,6,0,0,0,6-6V44.68a6,6,0,0,1,10.18-4.31l21,20.36A6,6,0,0,1,455.5,65V285.5a6,6,0,0,0,6,6h4a6,6,0,0,0,6-6V57.08a6,6,0,0,0-1.88-4.36L418.23,4.14a6,6,0,0,0-4.12-1.64H58.5a6,6,0,0,0-6,6v148a6,6,0,0,0,6,6h0A6,6,0,0,0,64.5,156.5Z"/><rect class="cls-1" x="83.5" y="35.5" width="128" height="14" rx="6"/><path class="cls-1" d="M205.5,182.5H58.5a6,6,0,0,0-6,6v26.76a6.07,6.07,0,0,1-.49,2.38L3,331.36a6.07,6.07,0,0,0-.49,2.38V510.59a6,6,0,0,0,5.91,6l247,3.82a6,6,0,0,0,6.09-6V333.76a5.89,5.89,0,0,0-.51-2.41l-49-111.7a5.89,5.89,0,0,1-.51-2.41V188.5A6,6,0,0,0,205.5,182.5Z"/><rect class="cls-2" x="83.5" y="68.5" width="64" height="13" rx="6"/><rect class="cls-1" x="67.5" y="196.5" width="130" height="16" rx="6"/><path class="cls-1" d="M62,232.19l-35,84a6,6,0,0,0,5.54,8.31H147.61a6,6,0,0,0,5.48-3.55l37.62-84a6,6,0,0,0-5.47-8.45H67.5A6,6,0,0,0,62,232.19Z"/><path class="cls-1" d="M198.23,256.55l-26,59.55a6,6,0,0,0,5.49,8.4H232a6,6,0,0,0,5.42-8.57l-28.29-59.55A6,6,0,0,0,198.23,256.55Z"/><rect class="cls-1" x="18.5" y="341.5" width="129" height="162" rx="6"/><rect class="cls-1" x="164.5" y="341.5" width="81" height="162" rx="6"/><rect class="cls-3" x="197.5" y="359.5" width="14" height="14" rx="6"/><rect class="cls-3" x="196.5" y="390.5" width="16" height="16" rx="6"/><rect class="cls-3" x="196.5" y="422.5" width="16" height="17" rx="6"/><path class="cls-1" d="M247.27,276.5H367.5a6,6,0,0,0,6-6V253.6a6,6,0,0,0-.39-2.13l-39.24-103a6,6,0,0,1-.39-2l-.86-41.08a6,6,0,0,0-6-5.88H274.5a6,6,0,0,0-6,6v41a6.18,6.18,0,0,1-.34,2l-20.84,58.89a6,6,0,0,1-7.11,3.82L236,210.13a6,6,0,0,1-4.16-7.93l20.23-53.68a5.85,5.85,0,0,0,.39-2.11V100.29a6,6,0,0,0-2-4.46c-6.65-5.93-26.22-26.39.64-41.59A5.84,5.84,0,0,1,254,53.5h95.18a6,6,0,0,1,4.12,1.64c6,5.61,23,24.51,0,38.75A6,6,0,0,0,350.5,99v47.44a6.06,6.06,0,0,0,.38,2.11l38.24,102a6.06,6.06,0,0,1,.38,2.11v56.59a6,6,0,0,1-4.1,5.69l-3,1a6,6,0,0,1-7.9-5.69V297.5a6,6,0,0,0-6-6H249a6,6,0,0,1-5.21-3l-1.71-3A6,6,0,0,1,247.27,276.5Z"/><path class="cls-4" d="M268.06,408.56l42,.38a6,6,0,0,1,5.94,6V417a6,6,0,0,1-6,6H268a6,6,0,0,1-6-6v-2.44A6,6,0,0,1,268.06,408.56Z"/><circle class="cls-1" cx="411" cy="411.5" r="96"/><rect class="cls-4" x="407" y="342" width="16" height="16" rx="6"/><path class="cls-5" d="M478.54,415.57l.95-.07a6,6,0,0,1,6.42,6.67c-.84,6.77-3.92,18.33-13.82,34.68a3.28,3.28,0,0,1-.2.31c-1.36,2-14.93,21.1-33.89,25.84,0,0-9,3.23-17.27,1.9a6,6,0,0,1-5-6.78l.08-.56a6,6,0,0,1,5.31-5.12c6.22-.66,18.42-3.82,34.48-17.08a6.43,6.43,0,0,0,.82-.83c2.42-2.91,15.27-19,16.64-33.51A6,6,0,0,1,478.54,415.57Z"/></g></g></svg>