<svg xmlns="http://www.w3.org/2000/svg" viewBox="0 0 460 484.01"><defs><style>.cls-1{fill:none;stroke:#404040;stroke-miterlimit:10;stroke-width:5px;}</style></defs><title>products navigation</title><g id="Layer_2" data-name="Layer 2"><g id="Layer_1-2" data-name="Layer 1"><path class="cls-1" d="M205.5,142.5H58.5a6,6,0,0,0-6,6v26.76a6.07,6.07,0,0,1-.49,2.38L3,291.36a6.07,6.07,0,0,0-.49,2.38V470.59a6,6,0,0,0,5.91,6l247,3.82a6,6,0,0,0,6.09-6V293.76a5.89,5.89,0,0,0-.51-2.41l-49-111.7a5.89,5.89,0,0,1-.51-2.41V148.5A6,6,0,0,0,205.5,142.5Z"/><path class="cls-1" d="M66.5,143.5V18A15.47,15.47,0,0,1,82,2.5H395A15.47,15.47,0,0,1,410.5,18V269.5"/><path class="cls-1" d="M219.5,195.5l34-89v-51s-30-23,0-42h96s33,22,0,43l1,52,39,104v63l-135.16.68"/><polygon class="cls-1" points="409.5 8.5 457.5 61.77 457.5 480 410.5 480 409.5 8.5"/><polygon class="cls-1" points="389 276 389 481 261.5 481.5 265 300.79 257.5 276.5 389 276"/><line class="cls-1" x1="410.5" y1="480.5" x2="381.5" y2="480.5"/></g></g></svg>