<svg xmlns="http://www.w3.org/2000/svg" viewBox="0 0 264.31 342.91"><defs><style>.cls-1{fill:none;stroke:#404040;stroke-miterlimit:10;stroke-width:5px;}</style></defs><title>products2</title><g id="Layer_2" data-name="Layer 2"><g id="Layer_1-2" data-name="Layer 1"><path class="cls-1" d="M205.5,2.5H58.5a6,6,0,0,0-6,6V35.26A6.07,6.07,0,0,1,52,37.64L3,151.36a6.07,6.07,0,0,0-.49,2.38V330.59a6,6,0,0,0,5.91,6l247,3.82a6,6,0,0,0,6.09-6V153.76a5.89,5.89,0,0,0-.51-2.41L212,39.65a5.89,5.89,0,0,1-.51-2.41V8.5A6,6,0,0,0,205.5,2.5Z"/><polyline class="cls-1" points="51.5 37.5 210.5 37.5 151.5 152.79 260.5 152.5 210.5 37.5"/><polyline class="cls-1" points="2 152.85 149.78 152.85 152 338 4.22 338 4.22 154.04"/><line class="cls-1" x1="52.5" y1="289.5" x2="113.5" y2="289.5"/><rect class="cls-1" x="192.5" y="171.5" width="15" height="15"/><rect class="cls-1" x="191.5" y="202.5" width="16" height="16"/><rect class="cls-1" x="191.5" y="233.5" width="16" height="16"/><circle class="cls-1" cx="98.5" cy="109.5" r="25"/></g></g></svg>