<svg xmlns="http://www.w3.org/2000/svg" viewBox="0 0 216 213.01"><defs><style>.cls-1{fill:none;stroke:#000;stroke-miterlimit:10;stroke-width:3px;}</style></defs><title>Asset 1</title><g id="Layer_2" data-name="Layer 2"><g id="Layer_1-2" data-name="Layer 1"><path class="cls-1" d="M45.5,142.51V2.51s-20-7-33,19v154s8-27,30-19l163,1V1.51L46,2.51"/><line class="cls-1" x1="1.5" y1="47.01" x2="1.5" y2="120.01"/><line class="cls-1" x1="214.5" y1="36.01" x2="214.5" y2="75.01"/><path class="cls-1" d="M176.5,125.51v13h-71s-17,8-32,1c0,0-13-12,1-20,0,0,18-10,31,6Z"/><path class="cls-1" d="M12.5,175.51s-7,32,22,36h171l-7-15v-24l7-15"/><polyline class="cls-1" points="199 172.51 78.71 171.77 37.5 171.51"/><polyline class="cls-1" points="79.5 172.01 79.5 206.48 95.96 193.1 110.37 207.51 110.37 172.52"/><line class="cls-1" x1="37.5" y1="197.51" x2="78.5" y2="197.51"/><line class="cls-1" x1="112.5" y1="197.51" x2="198.5" y2="197.51"/><path class="cls-1" d="M152.5,82.51v28h-59v-30h-13s-40-25,0-43h20s19-33,47,0h17s43,17,0,45Z"/><polyline class="cls-1" points="105 82.01 105 101.51 131.5 101.51"/></g></g></svg>