<svg xmlns="http://www.w3.org/2000/svg" viewBox="0 0 490.6 216.45"><defs><style>.cls-1{fill:none;stroke:#404040;stroke-miterlimit:10;stroke-width:5px;}</style></defs><title>bread</title><g id="Layer_2" data-name="Layer 2"><g id="Layer_1-2" data-name="Layer 1"><path class="cls-1" d="M122.39,24a277.15,277.15,0,0,0-76,43c-21,16.88-34.87,28.29-41,49-.81,2.77-9.9,35.33,9,61,4.1,5.57,14,16.93,49,27,36.79,10.6,65.14,9.36,135,8,36-.7,54-1.05,60-1,70.44.61,102.61,7.44,156-2,28.86-5.1,39.59-10.65,48-18,20.17-17.6,31.15-49.07,23-76-4.91-16.23-16.27-25.82-39-45-26.67-22.5-54-34.86-70-42-10.18-4.53-18.87-7.81-25-10,0,0,15,30,16,45,0,0,0,33-5,43l-15,27s8-43,4-53c0,0,0-24-17-44,0,0-15-19-26-27l-67-6s22,29,24,44c0,0,3,28,1,48a96.81,96.81,0,0,1-11,27l-8,13,5-43s3-13-4-30c0,0-7-21-18-30,0,0-14-17-26-25l-54,10s16,21,16,33c0,0,2,22,1,40a61.29,61.29,0,0,1-11,31l-9,12s6-28,5-33c0,0,0-30-4-35,0,0-3-16-11-25Z"/></g></g></svg>