<svg xmlns="http://www.w3.org/2000/svg" viewBox="0 0 133.24 111.29"><defs><style>.cls-1{fill:#707070;}.cls-2{fill:#fff;}.cls-3,.cls-4{fill:none;stroke:#707070;stroke-miterlimit:10;}.cls-3{stroke-width:5px;}.cls-4{stroke-width:4px;}</style></defs><title>Asset 1</title><g id="Layer_2" data-name="Layer 2"><g id="Layer_2-2" data-name="Layer 2"><g id="cereal"><circle class="cls-1" cx="30.51" cy="27.6" r="7.48"/><circle class="cls-2" cx="30.61" cy="27.87" r="2.95"/><circle class="cls-1" cx="53.92" cy="37.41" r="7.93"/><circle class="cls-2" cx="53.92" cy="37.39" r="2.95"/><circle class="cls-1" cx="72.15" cy="29.5" r="7.84"/><circle class="cls-2" cx="72.15" cy="29.5" r="3.1"/><path class="cls-1" d="M17.36,37.62a3.22,3.22,0,0,1,6.41,0h5a8.18,8.18,0,0,0-16.35,0Z"/><path class="cls-1" d="M8.78,44.43a3.25,3.25,0,0,1,6.47,0h5a8.26,8.26,0,0,0-16.51,0Z"/><path class="cls-1" d="M38,37.66a3.25,3.25,0,0,1,6.47,0h5a8.26,8.26,0,0,0-16.51,0Z"/><path class="cls-1" d="M56.78,30.63a3.25,3.25,0,0,1,6.47,0h5a8.26,8.26,0,0,0-16.51,0Z"/><path class="cls-1" d="M68.28,43.38a3.25,3.25,0,0,1,6.47,0h5a8.26,8.26,0,0,0-16.51,0Z"/><path class="cls-1" d="M81.45,31.7a3.25,3.25,0,0,1,6.47,0h5a8.26,8.26,0,0,0-16.51,0Z"/><path class="cls-1" d="M105.87,42.75a3.25,3.25,0,0,1,6.47,0h5a8.26,8.26,0,0,0-16.51,0Z"/><path class="cls-1" d="M27.32,46.44a3.24,3.24,0,0,1,6.47,0h5a8.26,8.26,0,0,0-16.52,0Z"/></g><g id="bowl"><path class="cls-3" d="M116.36,46.4V66.32s-1.45,13-3.34,16-7.56,12.07-7.56,12.07-6.11,5.09-9,6.4a21,21,0,0,1-5.82,1.6L86,108.79H57.76"/><path class="cls-3" d="M2.5,46.29v20s1.45,13,3.34,16,7.57,12.07,7.57,12.07,6.11,5.09,9,6.4a21,21,0,0,0,5.82,1.6l4.66,6.4H61.1"/><line class="cls-4" x1="2.5" y1="48.28" x2="116.36" y2="48.28"/><path id="spoon" class="cls-3" d="M129.38,7.41l-3.53-3.53a4.72,4.72,0,0,0-6.67,0L76.89,46.17H97.17L129.38,14A4.63,4.63,0,0,0,129.38,7.41Z"/></g></g></g></svg>