<svg xmlns="http://www.w3.org/2000/svg" viewBox="0 0 546.43 639.8"><defs><style>.cls-1,.cls-2{fill:#fff;stroke:#707070;stroke-linecap:round;stroke-linejoin:round;}.cls-1{stroke-width:9px;}.cls-2{stroke-width:6px;}</style></defs><title>Asset 1</title><g id="Layer_2" data-name="Layer 2"><g id="Layer_2-2" data-name="Layer 2"><g id="box"><rect class="cls-1" x="51.5" y="4.5" width="185" height="46"/><polygon class="cls-1" points="186.5 130.5 4.5 130.5 51.5 50.5 236.5 50.5 186.5 130.5"/><rect class="cls-1" x="4.5" y="130.5" width="182" height="475"/><rect class="cls-1" x="186.5" y="130.5" width="100" height="475"/><polygon class="cls-1" points="286.5 130.5 186.5 130.5 237.76 50.5 286.5 130.5"/><rect class="cls-2" x="187.36" y="301.48" width="99.14" height="110.91"/><rect class="cls-2" x="4.5" y="301.48" width="182" height="110.91"/></g><g id="bottle"><path class="cls-1" d="M486.9,99.27H393.36c-7.67,0-14.71-7-14.71-15.72V72.79a15.71,15.71,0,0,1,15.71-15.71H487.9a15.71,15.71,0,0,1,15.71,15.71V83.55C503.61,92.23,496.57,99.27,486.9,99.27Z"/><path class="cls-1" d="M398.54,99.27s4.82,21.09-1.56,33.84S380.11,171,370.36,181.86,346.73,220.48,346,235.11s0,291.37,0,291.37,0,24.75,6.75,28.13,15.75,14.62,36,18,43.88,5.62,60.75,6.75"/><path class="cls-1" d="M398.54,99.27s4.82,21.09-1.56,33.84S380.11,171,370.36,181.86,346.73,220.48,346,235.11s0,291.37,0,291.37,0,24.75,6.75,28.13,15.75,14.62,36,18,43.88,5.62,60.75,6.75"/><path class="cls-1" d="M489,99.27s-4.82,21.09,1.55,33.84,16.88,37.87,26.63,48.75,23.62,38.62,24.37,53.25,0,291.37,0,291.37,0,24.75-6.75,28.13-15.75,14.62-36,18-43.87,5.62-60.75,6.75"/><rect class="cls-2" x="407.86" y="253.11" width="134" height="145.13"/><path class="cls-1" d="M417.71,176c-12.37,13.5-19.79,22.95-23.16,29.7s-12.71,32.63-12.75,33.75"/></g><g id="cheese"><circle class="cls-1" cx="319.69" cy="544.39" r="25.99"/><path class="cls-1" d="M340.84,489.29a21.85,21.85,0,1,1-7.22-22.9L306,378.88,298.78,356h0a.82.82,0,0,0-1.57,0l-80.5,251.2a.75.75,0,0,0,0,.59c.86,1.86,5.95,12.07,15.9,17.43,10.63,5.73,33.15,9.86,34.53,10.11l.14,0h42.11s26.16,0,38.81-5.07C359.69,625.65,376,614.16,379,612a.82.82,0,0,0,.3-.92l-.16-.5h0Z"/><path class="cls-1" d="M427.39,577.36,365.7,354.09a.83.83,0,0,0-.8-.61H299.12a.83.83,0,0,0-.78,1.08l.44,1.4L306,378.88l27.61,87.51a21.84,21.84,0,0,1,7.22,22.9L379.11,610.6a.82.82,0,0,0,1.26.42l46.7-32.77A.81.81,0,0,0,427.39,577.36Z"/><path class="cls-1" d="M226.79,589.2a35.69,35.69,0,0,0,4.77.38,35.09,35.09,0,0,0,16.83-66.07"/><circle class="cls-1" cx="345.97" cy="401.84" r="10.55"/></g></g></g></svg>