<svg xmlns="http://www.w3.org/2000/svg" viewBox="0 0 655.76 511.5"><defs><style>.cls-1,.cls-2{fill:none;stroke:#404040;stroke-miterlimit:10;}.cls-1{stroke-width:7px;}.cls-2{stroke-width:4px;}</style></defs><title>meat</title><g id="Layer_2" data-name="Layer 2"><g id="Layer_1-2" data-name="Layer 1"><path class="cls-1" d="M445.47,207.88c27.08.09,46.89,4.33,91,15,52.07,12.59,59.09,15.06,68,23,3.81,3.39,26.11,23.25,25,50-.82,19.78-14.54,33.18-42,60-14,13.64-28.73,28.05-52,42-27.75,16.62-51.21,22.31-97,33-45.55,10.63-74.25,13.33-124,18-34.48,3.23-57.66,4.05-82-8-10-4.94-27.8-14.09-32-32-4.47-19.07,9.25-36.29,13-41,11.69-14.68,23-16.5,64-34,35.31-15.07,53.15-22.79,62-32,15.71-16.35,9.53-23,33-54,19.25-25.45,31.79-32,39-35C420,209.37,428.8,207.82,445.47,207.88Z"/><path class="cls-1" d="M199.47,406.88c-2.46,5.7-15.27,36.84,0,63,4.29,7.34,14.74,21.07,52,31,45.39,12.1,84.27,6.22,114,1,95.78-16.83,147.42-26.38,210-61,45.5-25.18,61.89-44.3,72-62,17.19-30.11-17.32-65.46-18-83"/><ellipse class="cls-1" cx="506.97" cy="300.88" rx="64.5" ry="37"/><ellipse class="cls-1" cx="506.97" cy="302.38" rx="27.5" ry="14.5"/><path class="cls-1" d="M199.47,397.88c-51.09,29.14-101.36,58.39-103,56-2.51-3.67,24-18,48-62,12.14-22.26,12.32-43.12,13-53,1.2-17.56,2.05-30-5-43-10.55-19.43-54.2-21.11-61-23l186-85,36-15s112-1,61,72"/><ellipse class="cls-1" cx="74.84" cy="373.48" rx="97.41" ry="56.76" transform="translate(-278.93 232.28) rotate(-56.91)"/><line class="cls-1" x1="446.47" y1="129.88" x2="534.86" y2="75.17"/><path class="cls-1" d="M202.47,224.88c.48-10.66,4.6-45.52,14-65,18.58-38.52,52-55.15,63-60,12.27-5.4,22-7.3,58-11,25.36-2.61,59.34-5.65,100-8,0,0-35,62,34,47,0,0-16,79-29,80"/><path class="cls-1" d="M430.9,96.57l81.57-51.69s-2-33,16-37c0,0,32-17,31,16l5,10s31,2,17,29c0,0-1,13-23,15l-26-1.21"/><ellipse class="cls-2" cx="82.79" cy="330.48" rx="31.21" ry="18.05" transform="matrix(0.58, -0.82, 0.82, 0.58, -234.74, 207.02)"/><ellipse class="cls-2" cx="44.89" cy="400.5" rx="20.54" ry="11" transform="translate(-294.86 183.74) rotate(-51.07)"/><ellipse class="cls-2" cx="101.2" cy="383.44" rx="25.29" ry="16.17" transform="translate(-281.47 279.36) rotate(-60)"/><ellipse class="cls-2" cx="63.81" cy="434.04" rx="11.89" ry="8.5" transform="translate(-288.22 172.25) rotate(-45)"/></g></g></svg>