<svg xmlns="http://www.w3.org/2000/svg" viewBox="0 0 483.53 427.07"><defs><style>.cls-1,.cls-2,.cls-3{fill:none;stroke:#404040;stroke-miterlimit:10;}.cls-1{stroke-width:9px;}.cls-2{stroke-width:8px;}.cls-3{stroke-width:6px;}</style></defs><title>readytogo</title><g id="Layer_2" data-name="Layer 2"><g id="Layer_1-2" data-name="Layer 1"><line class="cls-1" x1="152.5" y1="96.57" x2="115.5" y2="144.57"/><line class="cls-1" x1="156.5" y1="145.57" x2="156.5" y2="92.57"/><line class="cls-1" x1="196.5" y1="144.57" x2="158.5" y2="94.57"/><path class="cls-1" d="M47.5,195.57h217s33,20,0,40H47.5S10.5,213.57,47.5,195.57Z"/><path class="cls-1" d="M54.5,194.57s-6-70,82-98c0,0,107-14,122,98"/><path class="cls-1" d="M373.5,233.58c16,10.69,26-16.52,26-16.52,27-88.44-70-37.9-70-37.9s-46,24.29-50,54.42"/><rect class="cls-1" x="4.5" y="236.57" width="466" height="41" rx="7.52"/><path class="cls-1" d="M36.63,282,75.78,420a3.49,3.49,0,0,0,3.37,2.55H395.83a3.5,3.5,0,0,0,3.38-2.57l38.34-138a3.51,3.51,0,0,0-3.38-4.45H40a3.51,3.51,0,0,0-3.51,3.51h0A3.42,3.42,0,0,0,36.63,282Z"/><path class="cls-2" d="M137.5,320.57s20-34,41,0v67s-19,37-41,0Z"/><path class="cls-2" d="M219,320.56s20-34,41,0v67s-19,37-41,0Z"/><path class="cls-2" d="M300,320.56s20-34,41,0v67s-19,37-41,0Z"/><path class="cls-1" d="M371,165.07l41-41s-10-26,13-34c0,0,29-9,34,19,0,0,20,1,20,24,0,0,1,12-9,20,0,0-13,9-26,2l-39,39"/><path class="cls-3" d="M248,14.07c-.35-4.85,4.34-10.33,9-11,7.23-1,15.37,9.38,17,19,1.43,8.41-1.91,17.38-7,23-2.46,2.72-9.52,9.28-15,14-1.22,1-3.48,3-4,6-.62,3.58,1.47,7.1,2,8,.83,1.41,1.11,1.34,3,4s2.86,4,3,5c.55,3.87-5.15,9.73-10,9-3.34-.5-5-3.95-8-10a32.66,32.66,0,0,1-4-14,29.92,29.92,0,0,1,2-12,31.05,31.05,0,0,1,10-13c6.12-4.57,10.46-4,13-9,.61-1.19,1.88-3.67,1-6-1.22-3.23-5.27-2.71-9-7C250.05,19,248.2,16.86,248,14.07Z"/><path class="cls-3" d="M305.33,14.57c-.35-4.85,4.35-10.33,9-11,7.24-1,15.37,9.37,17,19,1.43,8.41-1.91,17.38-7,23-2.46,2.72-9.52,9.27-15,14-1.21,1-3.47,3-4,6-.61,3.58,1.47,7.1,2,8,.84,1.4,1.12,1.33,3,4s2.87,4,3,5c.55,3.86-5.15,9.72-10,9-3.34-.5-5-3.95-8-10-1.68-3.44-3.77-7.8-4-14a30,30,0,0,1,2-12,31.07,31.07,0,0,1,10-13c6.13-4.57,10.46-4,13-9,.62-1.2,1.89-3.67,1-6-1.22-3.23-5.26-2.72-9-7C307.38,19.47,305.54,17.36,305.33,14.57Z"/><path class="cls-3" d="M361.33,14.57c-.35-4.85,4.35-10.33,9-11,7.24-1,15.37,9.37,17,19,1.43,8.41-1.91,17.38-7,23-2.46,2.72-9.52,9.27-15,14-1.21,1-3.47,3-4,6-.61,3.58,1.47,7.1,2,8,.84,1.4,1.12,1.33,3,4s2.87,4,3,5c.55,3.86-5.15,9.72-10,9-3.34-.5-5-3.95-8-10-1.68-3.44-3.77-7.8-4-14a30,30,0,0,1,2-12,31.07,31.07,0,0,1,10-13c6.13-4.57,10.46-4,13-9,.62-1.2,1.89-3.67,1-6-1.22-3.23-5.26-2.72-9-7C363.38,19.47,361.54,17.36,361.33,14.57Z"/></g></g></svg>