<svg xmlns="http://www.w3.org/2000/svg" viewBox="0 0 415.81 394"><defs><style>.cls-1,.cls-2{fill:none;stroke:#404040;stroke-miterlimit:10;}.cls-1{stroke-width:9px;}.cls-2{stroke-width:7px;}</style></defs><title>sauces</title><g id="Layer_2" data-name="Layer 2"><g id="Layer_1-2" data-name="Layer 1"><path class="cls-1" d="M281.65,4.5h41.83s15.44.5,22.42,23.41l.49,124s5,25.9,26.9,48.81c0,0,33.37,37.35,33.37,42.33,0,0,7.47,20.42,3.48,36.36,0,0-5,49.81-7,51.8,0,0-5,34.86-8,34.86,0,0-10,12.95-21.91,18.93l-143.44,2s-23.91-11.95-23.91-28.89c0,0-8-42.83-13.94-85.66,0,0-4-23.91,17.93-44.83l35.86-45.82s11-20.91,11-25.89,1.5-131,1.5-131S265.71,4.5,281.65,4.5Z"/><path class="cls-2" d="M5,257c1.93-1.84,32.38-31.51,46-31,3.58.14,11.85.45,18,6,2.78,2.51,3.57,4.69,7,6,5.74,2.19,11.66-.82,12-1,4.68-2.46,4.19-5.42,9-8,3.18-1.71,6-1.83,10-2a33.52,33.52,0,0,1,16,3c2.24,1.07,2.2,1.41,7,4,3.33,1.8,32.63,27.64,34.5,28.5"/><path class="cls-1" d="M283.5,24.5h34s7,2,5,17h-42S277.5,29.5,283.5,24.5Z"/><rect class="cls-1" x="279.5" y="65.5" width="43" height="36" rx="2.97"/><path class="cls-1" d="M259.62,247.5h84.63a14.54,14.54,0,0,1,13.83,10c4.71,14.34,11,42.07,1.46,69.78a18.27,18.27,0,0,1-17.32,12.21H259.89a16.23,16.23,0,0,1-15.46-11.24c-4.72-14.64-10.35-41.69-.46-69.63A16.62,16.62,0,0,1,259.62,247.5Z"/><rect class="cls-1" x="32" y="71.5" width="107" height="36.5"/><rect class="cls-1" x="4.5" y="108.5" width="160" height="281" rx="13.9"/><polygon class="cls-1" points="99 5 116 70 99 70 88 20 83 20 70 71 55 71 70 5 99 5"/></g></g></svg>