<svg xmlns="http://www.w3.org/2000/svg" viewBox="0 0 179.8 507.09"><defs><style>.cls-1,.cls-3,.cls-5{fill:#707070;}.cls-2,.cls-4{fill:none;}.cls-2,.cls-3,.cls-4,.cls-5{stroke:#707070;stroke-miterlimit:10;}.cls-2,.cls-3{stroke-linecap:round;}.cls-2,.cls-3,.cls-4{stroke-width:9px;}.cls-6{fill:#fff;}</style></defs><title>Asset 1</title><g id="Layer_2" data-name="Layer 2"><g id="Layer_2-2" data-name="Layer 2"><g id="bottle"><path class="cls-1" d="M119.58,85.09c.25,7,.73,15.48,1.67,19.38,1.62,6.73,8,16.47,10,19.52l22.28,35.22c1.36,2.43,13.17,23.46,15,26.76a28.68,28.68,0,0,1,1.29,6.86v49.09l-1.33,50.82c-.94,6.47-8.46,58-10.07,71.68a92.6,92.6,0,0,0,2.24,31.51l8.76,32.43c.47,6.4.54,13.34.14,15.17-.46,2-3.4,7.68-5.35,11.41-1.44,2.77-2.93,5.62-4.1,8.16-1.37,3-7.27,9.95-17.53,20.69l-1.75,1.83c-1.71,1.76-9.88,6.58-18.06,10.7-5.39.22-20.4.77-35.48.77C62.34,497.09,55,495.63,53,495c-8.24-2.59-13.55-7.92-17.82-12.21a57.56,57.56,0,0,0-5.28-4.9c-2.91-2.47-12.1-16.57-16.57-24.49-.89-1.57-2-6.27-2.65-9.86,0-7.14.36-16,.9-18.37.87-4,4.67-18,6.06-23l0-.13,0-.14,3.09-12.6.21-.85.06-.86c.5-7.44.51-11.52-.23-14.33-.35-2.47-.64-5.47-.64-5.5l0-.19,0-.18-7-52.8L10.7,290.29V195a49.62,49.62,0,0,1,1.55-12c.11-.37.25-.83.38-1.37l9.77-15.82L36.16,144l.15-.23.13-.24,15.93-28.66c1.37-2.24,5.3-8.9,6.65-13.95.81-3.05,1-9.28,1-15.84h59.54m9.77-10H49.84s.64,19-.48,23.25-5.63,11.49-5.63,11.49l-16,28.85L13.92,160.53,2.68,178.72c0-.07.22-.33.31-.33s.1.35-.32,1.75A59.29,59.29,0,0,0,.7,195V290.8l2.53,24.93,7,52.94s.38,4.1.84,7c.7.85,0,11.2,0,11.2L8,399.49S3,417.9,1.83,423,.7,444.31.7,444.31s1.41,9.53,3.94,14,14.06,23.53,19.13,27.45,12,14.29,26.25,18.77c6.33,2,21.91,2.55,37.25,2.55,19.19,0,38-.87,38-.87s18.28-9,22.78-13.72,18-18.49,21.09-25.22,9-16.53,10.13-21.57,0-19,0-19l-9-33.33a82.34,82.34,0,0,1-2-27.74c1.69-14.28,10.12-72,10.12-72l1.35-51.55V192.47s-.5-7.57-2.47-11.21-15.19-27.17-15.19-27.17l-22.5-35.58s-7.32-10.78-8.67-16.39-1.62-27-1.62-27ZM2.68,178.72v0Zm0,0Z"/><path class="cls-2" d="M54,455.28c3.94,15.19,5.06,34,17.44,38s33.75,2.25,33.75,2.25,14.06-3.66,17.43-14.91A201.57,201.57,0,0,0,128,455.28"/><path class="cls-3" d="M173.25,291.09H4.5V194.56H173.25Z"/><line class="cls-4" x1="39.92" y1="130.16" x2="140.67" y2="129.87"/><path class="cls-5" d="M130.37,42.69H50.06V11.35A10.92,10.92,0,0,1,61.05.5h58.34a10.91,10.91,0,0,1,11,10.85Z"/><rect class="cls-5" x="39.92" y="50.5" width="100.75" height="24.25" rx="10.62"/><rect class="cls-5" x="51.72" y="43.06" width="11.81" height="8.06"/><rect class="cls-5" x="118.59" y="43.06" width="10.66" height="7.87"/><rect class="cls-6" x="50.06" y="60.4" width="80.66" height="4.67" rx="2.34"/></g><g id="bubbles"><circle class="cls-3" cx="80.07" cy="324.1" r="11.51"/><circle class="cls-6" cx="80.07" cy="324.1" r="5.77"/><circle class="cls-3" cx="120.86" cy="352.01" r="11.51"/><circle class="cls-6" cx="120.53" cy="352.34" r="6.44"/><circle class="cls-3" cx="103.59" cy="407.71" r="18.27"/><circle class="cls-6" cx="103.83" cy="407.47" r="11.68"/></g></g></g></svg>